<svg xmlns="http://www.w3.org/2000/svg" viewBox="0 0 619.42 409.45"><defs><style>.cls-1{fill:#fff;}.cls-2{fill:#ffc50d;}.cls-3{fill:#ffc107;}</style></defs><title>outline strokeAsset 4</title><g id="Layer_2" data-name="Layer 2"><g id="Layer_2-2" data-name="Layer 2"><path class="cls-1" d="M492.22,295s2,86.52,7.79,97.85c10.22,19.92-42.53,22.81-54.21,3.92-8.68-14.05-8.31-214.65-8.31-214.65,0-30.78-4.05-65.57,18.18-91.23,18.82-20.52,46.81-23.36,74.18-23.36s46.92,4.55,65.74,23.36c22.23,25.66,23.83,61.46,23.83,94s.69,67.88-21.54,93.54c-17.11,18.81-39,25.17-64.61,25.17-17.1,1.71-30.79,0-41-8.56Zm37.63-174.45c-10.26,0-24.27,3.83-31.11,12.39h0c-8.56,10.26-7.49,35.34-7.49,47.31,0,17.11-1.25,48.36,9,62L502,244c6.84,8.55,21,10,29.59,10,10.26,0,20.34-2.43,27.18-11,9.26-10.21,10.45-42,10.45-57.44,0-17.1,1.61-43.36-12.07-55.33C550.28,123.35,538.4,120.53,529.85,120.53Z"/><ellipse class="cls-2" cx="222.49" cy="37.33" rx="32.07" ry="37.33"/><ellipse class="cls-2" cx="367.33" cy="37.33" rx="32.07" ry="37.33"/><path class="cls-1" d="M136.43,147.94h0c-12.21-10.55-28.32-18.25-43.53-20.62a68.71,68.71,0,0,0-15.52-.23,16.22,16.22,0,0,0-10.76,5,11.69,11.69,0,0,0-3.13,6.22c-.79,5.07,1.81,10.66,4.92,12.88,7.4,8.07,17.28,11.34,27.16,14.61,16.37,6,30.79,13.44,42.73,25.69,16.49,16.41,25.17,38.53,21.75,60.5a64.85,64.85,0,0,1-5.42,17.58c-8.43,18-24.54,31.17-43.59,36.76-15,4.41-39.29,3.15-44.81,2-42-8.31-58.81-17-63.83-30.72-6.39-17.44.32-46.39,16.28-40.3a11.23,11.23,0,0,1,3.49,2.25c3.46,3.17,16.41,12.88,50.22,19.51a62.23,62.23,0,0,0,20,.24,19.43,19.43,0,0,0,11.49-5.82,11.67,11.67,0,0,0,3.23-6.32c.75-4.82-1.31-11.63-4.19-14.2a11.19,11.19,0,0,1-.86-.82c-8.73-9.68-18.48-12.93-29.61-18.07-16.38-6-32.49-13.71-44.43-26C13,173.74,6,151.88,9.41,129.91S27.82,89.5,46.56,80.3c17-9.46,46.67-9.41,64.53-3.49,28.15,9.32,43.28,22,45,34.62C158,126.07,143.67,156.58,136.43,147.94Z"/><rect class="cls-3" x="15.26" y="339.12" width="7.41" height="41.48"/><rect class="cls-3" x="40.44" y="339.12" width="7.41" height="41.48"/><polygon class="cls-3" points="95.25 345.05 95.25 339.12 61.18 339.12 61.18 345.05 74.51 345.05 74.51 380.6 81.92 380.6 81.92 345.05 95.25 345.05"/><path class="cls-3" d="M123.4,339.12V380.6h17.78c10.37,0,14.81-3,14.81-10.37,0-5.92-3-10.37-8.89-10.37,4.45-1.48,7.41-4.44,7.41-10.37s-4.44-10.37-13.33-10.37Zm5.93,5.93H139.7c4.44,0,7.4,3,7.4,4.44,0,3-3,5.93-7.4,5.93H129.33V345.05Zm0,17.77H139.7c4.44,0,8.88,3,8.88,5.93s-3,5.93-8.88,5.93H129.33Z"/><path class="cls-3" d="M190.06,339.12c-11.85,0-22.22,8.89-22.22,20.74s10.37,20.74,22.22,20.74,22.23-10.37,22.23-20.74c0-11.85-10.37-20.74-22.23-20.74Zm0,5.93c8.89,0,14.82,5.92,14.82,14.81s-5.93,14.82-14.82,14.82-14.81-5.93-14.81-14.82A14.84,14.84,0,0,1,190.06,345.05Z"/><polygon class="cls-3" points="270.06 380.6 270.06 339.12 262.65 339.12 247.84 365.79 235.99 339.12 227.1 339.12 227.1 380.6 234.51 380.6 234.51 349.49 247.84 376.16 250.8 376.16 264.13 349.49 264.13 380.6 270.06 380.6"/><path class="cls-3" d="M289.32,339.12V380.6H307.1c10.37,0,14.81-3,14.81-10.37,0-5.92-3-10.37-8.89-10.37,4.45-1.48,7.41-4.44,7.41-10.37S316,339.12,307.1,339.12Zm5.92,5.93h10.37c4.45,0,7.41,3,7.41,4.44,0,3-3,5.93-7.41,5.93H295.24V345.05Zm0,17.77h10.37c4.45,0,8.89,3,8.89,5.93s-3,5.93-8.89,5.93H295.24Z"/><path class="cls-3" d="M364.87,370.23l3,10.37h7.41l-17.78-41.48h-7.4L332.28,380.6h7.41l3-10.37Zm-3-5.92h-16.3L353,346.53Z"/><polygon class="cls-3" points="403.39 365.79 418.2 339.12 412.28 339.12 400.43 358.38 387.09 339.12 381.17 339.12 395.98 365.79 395.98 380.6 403.39 380.6 403.39 365.79"/><path class="cls-1" d="M399.56,88.76c0,2.38,12.06,207.53,6.53,222.93-5.32,14.81-59.28,13.4-51.09-12.82,6.92-22.17,7.91-135.23,2.12-140.68,0,0-39.18,71.79-60.87,73.62-41.28,3.49,47.83-35.58,45-135.64-.2-7,6.41-12.29,13.37-12.35H355c12.43,0,13,6,27.32-1.28S399.56,88.76,399.56,88.76Z"/><path class="cls-1" d="M185,88.76c0,2.38-12.06,207.53-6.53,222.93,5.32,14.81,59.28,13.4,51.1-12.82-6.93-22.17-7.92-135.23-2.13-140.68,0,0,39.2,71.57,60.87,73.62,43.23,4.08-47.83-35.58-45-135.64.2-7-6.41-12.29-13.37-12.35h-.37c-12.43,0-13,6-27.32-1.28S185,88.76,185,88.76Z"/></g></g></svg>
